<svg width="181" height="39" viewBox="0 0 181 39" fill="none" xmlns="http://www.w3.org/2000/svg">
<path d="M32.8667 35.1989H2.1275C0.954401 35.1989 0 34.2445 0 33.0714V3.92281C0 2.74971 0.954401 1.79537 2.1275 1.79537H32.8667C34.0398 1.79537 34.9941 2.74971 34.9941 3.92281V33.0714C35.014 34.2445 34.0398 35.1989 32.8667 35.1989Z" fill="#BE1622"/>
<path d="M10.8957 11.2398C9.58343 11.2995 8.48989 10.2854 8.43024 8.99304C8.37059 7.70064 9.38459 6.58715 10.6969 6.5275C12.0092 6.46785 13.1028 7.4819 13.1624 8.77429C13.2221 10.0866 12.208 11.1802 10.8957 11.2398Z" stroke="white" stroke-miterlimit="10"/>
<path d="M12.4468 7.14385L18.4117 1" stroke="white" stroke-miterlimit="10"/>
<path d="M26.1272 29.6714C24.8348 29.731 23.7213 28.717 23.6617 27.4246C23.602 26.1322 24.616 25.0188 25.9283 24.9591C27.2406 24.8995 28.3342 25.9135 28.3939 27.2059C28.4336 28.5182 27.4196 29.6117 26.1272 29.6714Z" stroke="white" stroke-miterlimit="10"/>
<path d="M27.7188 29.1544L36.0896 37.7837" stroke="white" stroke-miterlimit="10"/>
<path d="M11.4724 27.2257C10.1601 27.2854 9.06655 26.2713 9.0069 24.9789C8.94725 23.6865 9.96125 22.5731 11.2735 22.5134C12.5858 22.4538 13.6794 23.4678 13.739 24.7602C13.7788 26.0725 12.7648 27.1661 11.4724 27.2257Z" stroke="white" stroke-miterlimit="10"/>
<path d="M24.0769 14.0035C22.7646 14.0632 21.671 13.0492 21.6114 11.7568C21.5517 10.4644 22.5657 9.35092 23.878 9.29128C25.1903 9.23163 26.2839 10.2457 26.3436 11.5381C26.4032 12.8305 25.3891 13.9439 24.0769 14.0035Z" stroke="white" stroke-miterlimit="10"/>
<path d="M12.8252 23.2889L22.6673 13.1485" stroke="white" stroke-miterlimit="10"/>
<path d="M62.9189 29.0848C62.9189 29.5222 62.7598 29.9 62.4615 30.2182C62.1434 30.5363 61.7656 30.6953 61.3282 30.6953H59.9165V16.5187H58.5446C58.4849 17.5526 58.3457 18.4871 58.0873 19.3222C57.8288 20.1573 57.4709 20.8532 57.0534 21.4497C56.596 22.0462 56.0791 22.4836 55.4826 22.8018C54.8861 23.1199 54.23 23.2789 53.5341 23.2789C52.7785 23.2789 52.1025 23.1 51.4662 22.762C50.8499 22.424 50.313 21.9269 49.8557 21.2708C49.3984 20.6345 49.0604 19.8591 48.8218 18.9644C48.5832 18.0696 48.4639 17.0555 48.4639 15.9421C48.4639 14.8286 48.5832 13.8345 48.8218 12.9199C49.0604 12.0252 49.4183 11.2497 49.8557 10.6135C50.313 9.97719 50.8499 9.48014 51.4662 9.14212C52.0826 8.80411 52.7785 8.62515 53.5341 8.62515C54.1902 8.62515 54.7867 8.76435 55.3633 9.02283C55.92 9.28131 56.4171 9.65904 56.8545 10.1561C57.2721 10.6532 57.6299 11.2696 57.9083 11.9854C58.1867 12.7012 58.3855 13.4965 58.4849 14.3515H59.9364V8.10817H62.9586V29.0848H62.9189ZM51.4463 15.9023C51.4463 17.5328 51.6253 18.8053 51.9832 19.7199C52.3411 20.6345 52.8382 21.0918 53.4744 21.0918C54.1107 21.0918 54.6077 20.6146 54.9855 19.6801C55.3633 18.7456 55.5422 17.4731 55.5422 15.8824C55.5422 14.2918 55.3633 13.0392 54.9855 12.0848C54.6077 11.1503 54.1107 10.6731 53.4744 10.6731C52.8382 10.6731 52.3411 11.1503 51.9832 12.0848C51.6253 13.0392 51.4463 14.2918 51.4463 15.9023ZM67.313 29.045C67.313 29.5023 67.1738 29.8801 66.8955 30.1983C66.6171 30.5164 66.2592 30.6754 65.8417 30.6754H64.3306V8.08833H67.313V29.045Z" fill="#BE1622"/>
<path d="M70.9297 27.4147V25.2474H91.8267V27.4147H70.9297ZM82.9788 10.3351C82.9788 11.4287 83.1776 12.4228 83.5952 13.3573C84.0127 14.272 84.5495 15.107 85.2454 15.8228C85.9215 16.5585 86.6771 17.1948 87.532 17.7117C88.387 18.2287 89.2619 18.6263 90.1367 18.8848L88.9039 20.8731C88.2478 20.7141 87.532 20.4357 86.7765 20.0579C86.001 19.6801 85.2653 19.2228 84.5694 18.7059C83.8536 18.2088 83.1975 17.6322 82.6408 17.0158C82.0642 16.3796 81.6466 15.7234 81.3881 15.0474C81.1296 15.7433 80.6923 16.3994 80.1355 17.0158C79.5589 17.6521 78.9226 18.2088 78.2267 18.7059C77.5109 19.2228 76.7554 19.6801 75.9998 20.0579C75.2244 20.4357 74.5285 20.7141 73.8723 20.8731L72.6396 18.8848C73.5343 18.6263 74.3893 18.2287 75.2443 17.7117C76.0992 17.1948 76.8747 16.5585 77.5507 15.8228C78.2267 15.107 78.7636 14.2918 79.1612 13.3573C79.5788 12.4427 79.7776 11.4287 79.7776 10.3351V8.58542H82.9987V10.3351H82.9788Z" fill="#BE1622"/>
<path d="M93.6201 15.9222C93.6201 14.8088 93.7593 13.8146 94.0575 12.9C94.3558 12.0053 94.7733 11.2298 95.33 10.5935C95.8669 9.95729 96.5031 9.46023 97.2587 9.12222C98.0142 8.78421 98.8493 8.60524 99.7441 8.60524C100.659 8.60524 101.474 8.78421 102.249 9.12222C103.005 9.46023 103.661 9.95729 104.198 10.5935C104.735 11.2298 105.152 12.0053 105.45 12.9C105.749 13.7947 105.908 14.8088 105.908 15.9222C105.908 17.0357 105.749 18.0298 105.45 18.9445C105.152 19.8392 104.735 20.6146 104.198 21.2509C103.661 21.907 103.025 22.4041 102.249 22.7421C101.494 23.0801 100.659 23.2591 99.7441 23.2591C98.8493 23.2591 98.0142 23.0801 97.2587 22.7421C96.5031 22.4041 95.8669 21.907 95.33 21.2509C94.7733 20.6146 94.3558 19.8392 94.0575 18.9445C93.7792 18.0298 93.6201 17.0158 93.6201 15.9222ZM96.8412 15.9023C96.8412 17.5328 97.0996 18.8053 97.6166 19.7199C98.1335 20.6345 98.8493 21.0918 99.7441 21.0918C100.659 21.0918 101.374 20.6146 101.872 19.6801C102.369 18.7456 102.627 17.4731 102.627 15.8824C102.627 14.2918 102.369 13.0392 101.872 12.0848C101.374 11.1304 100.659 10.6731 99.7441 10.6731C98.8493 10.6731 98.1335 11.1503 97.6166 12.0848C97.0996 13.0392 96.8412 14.2918 96.8412 15.9023ZM111.495 29.045C111.495 29.5023 111.336 29.8801 111.038 30.1983C110.719 30.5164 110.342 30.6754 109.904 30.6754H108.274V8.08833H111.515V14.3714H114.776V16.5386H111.515V29.045H111.495Z" fill="#BE1622"/>
<path d="M116.227 15.9222C116.227 14.8088 116.366 13.8146 116.664 12.9C116.962 12.0053 117.38 11.2298 117.936 10.5935C118.473 9.95729 119.11 9.46023 119.865 9.12222C120.621 8.78421 121.436 8.60524 122.351 8.60524C123.245 8.60524 124.08 8.78421 124.856 9.12222C125.611 9.46023 126.268 9.95729 126.804 10.5935C127.341 11.2298 127.759 12.0053 128.057 12.9C128.355 13.7947 128.514 14.8088 128.514 15.9222C128.514 17.0357 128.355 18.0298 128.057 18.9445C127.759 19.8392 127.341 20.6146 126.804 21.2509C126.268 21.907 125.611 22.4041 124.856 22.7421C124.1 23.0801 123.265 23.2591 122.351 23.2591C121.436 23.2591 120.621 23.0801 119.865 22.7421C119.11 22.4041 118.473 21.907 117.936 21.2509C117.38 20.6146 116.962 19.8392 116.664 18.9445C116.366 18.0298 116.227 17.0158 116.227 15.9222ZM119.428 15.9023C119.428 17.5328 119.686 18.8053 120.203 19.7199C120.72 20.6345 121.436 21.0918 122.331 21.0918C123.245 21.0918 123.961 20.6146 124.458 19.6801C124.955 18.7456 125.214 17.4731 125.214 15.8824C125.214 14.2918 124.955 13.0392 124.458 12.0848C123.961 11.1503 123.245 10.6731 122.331 10.6731C121.416 10.6731 120.72 11.1503 120.203 12.0848C119.686 13.0392 119.428 14.2918 119.428 15.9023ZM134.598 29.045C134.598 29.5023 134.439 29.8801 134.141 30.1983C133.843 30.5164 133.445 30.6754 133.008 30.6754H131.377V8.08833H134.618V29.045H134.598Z" fill="#BE1622"/>
<path d="M150.167 8.84389V21.4298C150.167 21.8871 150.008 22.2649 149.69 22.583C149.372 22.9011 148.994 23.0603 148.537 23.0603H140.723C140.285 23.0603 139.908 22.9011 139.59 22.583C139.271 22.2649 139.112 21.8871 139.112 21.4298V8.84389H142.373V13.4965H146.887V8.84389H150.167ZM146.906 15.624H142.393V20.893H146.906V15.624ZM157.206 29.045C157.206 29.5023 157.047 29.8801 156.749 30.1983C156.43 30.5164 156.053 30.6754 155.615 30.6754H153.985V8.08833H157.226V29.045H157.206Z" fill="#BE1622"/>
<path d="M161.459 8.84389H173.051V11.0111H168.916V11.1105C168.916 11.9456 169.055 12.7211 169.333 13.4369C169.611 14.1527 169.969 14.8088 170.427 15.4053C170.884 16.0018 171.401 16.5585 171.978 17.0555C172.554 17.5526 173.17 18.0099 173.807 18.4275L172.475 20.3959C172.176 20.2369 171.818 20.0182 171.381 19.7796C170.963 19.541 170.506 19.2427 170.029 18.9047C169.552 18.5667 169.055 18.1889 168.577 17.7316C168.1 17.2942 167.663 16.7772 167.225 16.2205C166.828 16.7971 166.39 17.314 165.893 17.7714C165.396 18.2486 164.919 18.6661 164.462 19.024C163.984 19.4018 163.547 19.7199 163.11 19.9783C162.672 20.2368 162.314 20.4556 161.996 20.6345L160.664 18.6661C161.3 18.2486 161.917 17.7713 162.493 17.2544C163.07 16.7374 163.587 16.1608 164.044 15.5246C164.501 14.8883 164.859 14.1924 165.138 13.4567C165.416 12.721 165.555 11.9257 165.555 11.0906V10.9912H161.42V8.84389H161.459ZM168.498 28.2696V22.5234H165.237V28.8263C165.237 29.2638 165.396 29.6415 165.714 29.9597C166.032 30.2778 166.41 30.4368 166.868 30.4368H180.05V28.2696H168.498ZM172.634 14.9877H176.551V24.8895H178.181C178.638 24.8895 179.016 24.7304 179.314 24.4123C179.632 24.0942 179.772 23.7164 179.772 23.2591V8.08833H176.531V12.8403H172.614V14.9877H172.634Z" fill="#BE1622"/>
<path d="M52.6837 32.2618H50.3965V31.593H55.9653V32.2618H53.6582V37.6807H52.6837V32.2618Z" fill="#3C3C3B"/>
<path d="M62.7451 35.4514C62.7451 37.0634 61.3529 37.7837 60.0601 37.7837C58.6082 37.7837 57.4746 36.9262 57.4746 35.5372C57.4746 34.0796 58.6679 33.2222 60.1596 33.2222C61.691 33.2222 62.7451 34.131 62.7451 35.4514ZM58.469 35.5029C58.469 36.4633 59.1453 37.1835 60.0999 37.1835C61.0347 37.1835 61.7507 36.4632 61.7507 35.4858C61.7507 34.7484 61.2932 33.8052 60.1198 33.8052C58.9662 33.8052 58.469 34.6798 58.469 35.5029Z" fill="#3C3C3B"/>
<path d="M66.2685 32.056V33.3078H67.6806V33.908H66.2685V36.2574C66.2685 36.8061 66.4674 37.1148 67.0043 37.1148C67.2629 37.1148 67.4419 37.0977 67.5811 37.0634L67.621 37.6636C67.4221 37.7322 67.1237 37.7665 66.7458 37.7665C66.2884 37.7665 65.9304 37.6465 65.6918 37.4235C65.4133 37.1834 65.3139 36.789 65.3139 36.2746V33.8909H64.4785V33.2907H65.3139V32.2618L66.2685 32.056Z" fill="#3C3C3B"/>
<path d="M72.8886 37.6808L72.809 37.132H72.7693C72.471 37.475 71.8942 37.7837 71.1185 37.7837C70.0246 37.7837 69.4678 37.1492 69.4678 36.5318C69.4678 35.4686 70.6213 34.8856 72.7096 34.9027V34.817C72.7096 34.4568 72.5902 33.8052 71.4765 33.8052C70.9793 33.8052 70.4423 33.9252 70.0644 34.131L69.8457 33.5994C70.2832 33.3593 70.9395 33.2222 71.6157 33.2222C73.2665 33.2222 73.6642 34.131 73.6642 35.0056V36.6347C73.6642 37.012 73.6842 37.3721 73.7438 37.6808H72.8886ZM72.7494 35.4514C71.6953 35.4343 70.4821 35.5886 70.4821 36.4289C70.4821 36.9434 70.8998 37.1835 71.397 37.1835C72.113 37.1835 72.5505 36.8234 72.7096 36.4461C72.7494 36.3603 72.7494 36.2746 72.7494 36.1889V35.4514Z" fill="#3C3C3B"/>
<path d="M76.3926 31.2672H77.3672V37.6807H76.3926V31.2672Z" fill="#3C3C3B"/>
<path d="M83.6475 37.6807V31.593H84.7214L87.128 34.6626C87.6849 35.3828 88.1224 36.0173 88.4605 36.6518L88.4804 36.6346C88.4008 35.8287 88.3809 35.0741 88.3809 34.131V31.5759H89.2958V37.6636H88.3014L85.9147 34.5769C85.3976 33.8909 84.9004 33.205 84.5226 32.5362H84.4827C84.5424 33.3079 84.5623 34.0452 84.5623 35.0398V37.6465H83.6475V37.6807Z" fill="#3C3C3B"/>
<path d="M92.6209 35.6401C92.6408 36.7204 93.4762 37.1491 94.4706 37.1491C95.1667 37.1491 95.6043 37.0462 95.9622 36.9262L96.1412 37.4921C95.8031 37.6121 95.2064 37.7665 94.3512 37.7665C92.7005 37.7665 91.7061 36.8748 91.7061 35.5543C91.7061 34.2339 92.6607 33.1878 94.2319 33.1878C95.9821 33.1878 96.4595 34.4396 96.4595 35.2456C96.4595 35.4171 96.4395 35.5371 96.4196 35.6229H92.6209V35.6401ZM95.4849 35.0742C95.4849 34.5769 95.2263 33.788 94.1325 33.788C93.138 33.788 92.7005 34.5254 92.6209 35.0742H95.4849Z" fill="#3C3C3B"/>
<path d="M99.9394 32.056V33.3078H101.352V33.908H99.9394V36.2574C99.9394 36.8061 100.138 37.1148 100.675 37.1148C100.934 37.1148 101.113 37.0977 101.252 37.0634L101.292 37.6636C101.093 37.7322 100.795 37.7665 100.417 37.7665C99.9593 37.7665 99.5814 37.6465 99.3627 37.4235C99.0842 37.1834 98.9848 36.789 98.9848 36.2746V33.8909H98.1494V33.2907H98.9848V32.2618L99.9394 32.056Z" fill="#3C3C3B"/>
<path d="M103.955 33.3078L104.671 35.52C104.831 36.0173 104.97 36.4631 105.069 36.909H105.089C105.208 36.4631 105.387 36.0001 105.566 35.52L106.442 33.2907H107.277L108.112 35.4685C108.311 35.983 108.47 36.446 108.589 36.8919H108.609C108.709 36.446 108.848 35.983 109.027 35.4685L109.803 33.2735H110.757L109.007 37.6464H108.112L107.297 35.5543C107.098 35.057 106.959 34.6282 106.819 34.1138H106.8C106.66 34.6454 106.501 35.0913 106.302 35.5543L105.427 37.6293H104.532L102.901 33.2563H103.955V33.3078Z" fill="#3C3C3B"/>
<path d="M117.779 35.4514C117.779 37.0634 116.387 37.7837 115.094 37.7837C113.623 37.7837 112.509 36.9262 112.509 35.5372C112.509 34.0796 113.702 33.2222 115.194 33.2222C116.725 33.2222 117.779 34.131 117.779 35.4514ZM113.503 35.5029C113.503 36.4633 114.179 37.1835 115.134 37.1835C116.069 37.1835 116.785 36.4632 116.785 35.4858C116.785 34.7484 116.327 33.8052 115.154 33.8052C114 33.8052 113.503 34.6798 113.503 35.5029Z" fill="#3C3C3B"/>
<path d="M120.127 34.6798C120.127 34.1653 120.107 33.7195 120.087 33.325H120.942L120.982 34.1825H121.022C121.28 33.5994 121.877 33.2222 122.513 33.2222C122.613 33.2222 122.692 33.2222 122.792 33.2393V33.9939C122.692 33.9767 122.593 33.9767 122.454 33.9767C121.758 33.9767 121.28 34.4054 121.141 34.9884C121.121 35.0913 121.101 35.2285 121.101 35.3657V37.6979H120.127V34.6798Z" fill="#3C3C3B"/>
<path d="M125.854 35.3142H125.874C126.014 35.1599 126.193 34.9712 126.352 34.8169L127.943 33.3078H129.116L127.028 35.1085L129.395 37.6807H128.201L126.352 35.5886L125.854 36.0345V37.6807H124.88V31.2672H125.854V35.3142Z" fill="#3C3C3B"/>
<path d="M134.607 36.7204C135.044 36.9433 135.681 37.1148 136.337 37.1148C137.331 37.1148 137.908 36.7033 137.908 36.0859C137.908 35.52 137.49 35.1942 136.496 34.8855C135.263 34.5254 134.507 34.0109 134.507 33.1535C134.507 32.2103 135.482 31.5072 136.934 31.5072C137.689 31.5072 138.266 31.6444 138.584 31.7988L138.306 32.4504C138.067 32.3303 137.57 32.1589 136.894 32.1589C135.86 32.1589 135.482 32.6562 135.482 33.0678C135.482 33.6337 135.939 33.908 136.973 34.2338C138.246 34.6454 138.883 35.1427 138.883 36.0345C138.883 36.9605 138.027 37.7836 136.257 37.7836C135.521 37.7836 134.746 37.6121 134.328 37.3892L134.607 36.7204Z" fill="#3C3C3B"/>
<path d="M146.2 35.4514C146.2 37.0634 144.808 37.7837 143.515 37.7837C142.043 37.7837 140.93 36.9262 140.93 35.5372C140.93 34.0796 142.123 33.2222 143.615 33.2222C145.146 33.2222 146.2 34.131 146.2 35.4514ZM141.924 35.5029C141.924 36.4633 142.6 37.1835 143.555 37.1835C144.49 37.1835 145.206 36.4632 145.206 35.4858C145.206 34.7484 144.748 33.8052 143.575 33.8052C142.421 33.8052 141.924 34.6798 141.924 35.5029Z" fill="#3C3C3B"/>
<path d="M148.545 31.2672H149.52V37.6807H148.545V31.2672Z" fill="#3C3C3B"/>
<path d="M156.801 36.4803C156.801 36.9433 156.82 37.3378 156.84 37.6807H155.965L155.906 36.9605H155.886C155.627 37.3206 155.07 37.7664 154.096 37.7664C153.26 37.7664 152.246 37.3892 152.246 35.8458V33.2907H153.221V35.7087C153.221 36.5318 153.539 37.1148 154.434 37.1148C155.09 37.1148 155.548 36.7376 155.727 36.3946C155.786 36.2745 155.806 36.1374 155.806 35.983V33.3078H156.781V36.4803H156.801Z" fill="#3C3C3B"/>
<path d="M160.72 32.056V33.3078H162.132V33.908H160.72V36.2574C160.72 36.8061 160.919 37.1148 161.456 37.1148C161.714 37.1148 161.893 37.0977 162.032 37.0634L162.072 37.6636C161.873 37.7322 161.575 37.7665 161.197 37.7665C160.74 37.7665 160.382 37.6465 160.143 37.4235C159.864 37.1834 159.765 36.789 159.765 36.2746V33.8909H158.93V33.2907H159.765V32.2618L160.72 32.056Z" fill="#3C3C3B"/>
<path d="M165.434 32.0732C165.434 32.3476 165.195 32.5705 164.817 32.5705C164.459 32.5705 164.221 32.3476 164.221 32.0732C164.221 31.7988 164.479 31.5759 164.837 31.5759C165.195 31.593 165.434 31.7988 165.434 32.0732ZM164.34 37.6807V33.3078H165.315V37.6807H164.34Z" fill="#3C3C3B"/>
<path d="M172.949 35.4514C172.949 37.0634 171.557 37.7837 170.264 37.7837C168.792 37.7837 167.679 36.9262 167.679 35.5372C167.679 34.0796 168.872 33.2222 170.364 33.2222C171.895 33.2222 172.949 34.131 172.949 35.4514ZM168.673 35.5029C168.673 36.4633 169.349 37.1835 170.304 37.1835C171.239 37.1835 171.955 36.4632 171.955 35.4858C171.955 34.7484 171.497 33.8052 170.324 33.8052C169.17 33.8052 168.673 34.6798 168.673 35.5029Z" fill="#3C3C3B"/>
<path d="M175.297 34.4911C175.297 34.028 175.277 33.6679 175.257 33.3078H176.132L176.192 34.0281H176.211C176.47 33.6165 177.106 33.2049 178.001 33.2049C178.737 33.2049 179.911 33.5651 179.911 35.057V37.6635H178.936V35.1427C178.936 34.4396 178.618 33.8395 177.683 33.8395C177.047 33.8395 176.53 34.2167 176.371 34.6626C176.331 34.7654 176.311 34.9026 176.311 35.0227V37.6464H175.336V34.4911H175.297Z" fill="#3C3C3B"/>
</svg>
