<svg width="200" height="41" viewBox="0 0 200 41" fill="none" xmlns="http://www.w3.org/2000/svg">
<path d="M30.6139 32.8548H1.98168C0.888984 32.8548 0 31.9658 0 30.8731V3.72247C0 2.62978 0.888984 1.74085 1.98168 1.74085H30.6139C31.7066 1.74085 32.5956 2.62978 32.5956 3.72247V30.8731C32.6141 31.9658 31.7066 32.8548 30.6139 32.8548Z" fill="#BE1622"/>
<path d="M24.3359 27.7062C23.1321 27.7617 22.095 26.8172 22.0394 25.6134C21.9839 24.4096 22.9284 23.3725 24.1507 23.3169C25.373 23.2613 26.3917 24.2059 26.4473 25.4097C26.4843 26.632 25.5397 27.6506 24.3359 27.7062Z" stroke="white" stroke-width="0.3847" stroke-miterlimit="10"/>
<path d="M10.1489 10.538C8.92658 10.5935 7.90799 9.64899 7.85243 8.44518C7.79687 7.24136 8.74137 6.20419 9.9637 6.14863C11.186 6.09307 12.2047 7.03761 12.2602 8.24143C12.3158 9.46376 11.3713 10.4824 10.1489 10.538Z" stroke="white" stroke-width="0.3847" stroke-miterlimit="10"/>
<path d="M11.5933 6.72274L17.1493 1" stroke="white" stroke-width="0.4201" stroke-miterlimit="10"/>
<path d="M10.686 25.4282C9.46369 25.4837 8.4451 24.5392 8.38954 23.3354C8.33398 22.1316 9.27848 21.0945 10.5008 21.0389C11.7231 20.9833 12.7417 21.9279 12.7973 23.1317C12.8343 24.354 11.8898 25.3726 10.686 25.4282Z" stroke="white" stroke-width="0.3847" stroke-miterlimit="10"/>
<path d="M22.4277 13.1123C21.2054 13.1678 20.1868 12.2233 20.1312 11.0195C20.0757 9.81565 21.0202 8.77853 22.2425 8.72297C23.4648 8.66741 24.4835 9.61195 24.5391 10.8158C24.5946 12.0196 23.6501 13.0567 22.4277 13.1123Z" stroke="white" stroke-width="0.3847" stroke-miterlimit="10"/>
<path d="M11.9458 21.7612L21.1133 12.3159" stroke="white" stroke-width="0.4201" stroke-miterlimit="10"/>
<path d="M25.8174 27.2246L33.6144 35.2624" stroke="white" stroke-width="0.4201" stroke-miterlimit="10"/>
<path d="M45.3554 34.7624H43.2256V34.0401H48.4112V34.7624H46.2629V40.6148H45.3554V34.7624Z" fill="#3C3C3B"/>
<path d="M54.7262 38.2071C54.7262 39.948 53.4298 40.7259 52.226 40.7259C50.874 40.7259 49.8184 39.7999 49.8184 38.2997C49.8184 36.7255 50.9296 35.7995 52.3186 35.7995C53.7447 35.7995 54.7262 36.781 54.7262 38.2071ZM50.7444 38.2627C50.7444 39.2998 51.3741 40.0777 52.263 40.0777C53.1335 40.0777 53.8002 39.2998 53.8002 38.2442C53.8002 37.4478 53.3742 36.4292 52.2815 36.4292C51.2074 36.4292 50.7444 37.3737 50.7444 38.2627Z" fill="#3C3C3B"/>
<path d="M58.0047 34.5401V35.8921H59.3197V36.5403H58.0047V39.0775C58.0047 39.6702 58.1899 40.0036 58.6899 40.0036C58.9307 40.0036 59.0974 39.985 59.227 39.948L59.2641 40.5962C59.0789 40.6703 58.8011 40.7073 58.4492 40.7073C58.0233 40.7073 57.6899 40.5777 57.4677 40.337C57.2084 40.0777 57.1158 39.6517 57.1158 39.0961V36.5218H56.3379V35.8736H57.1158V34.7624L58.0047 34.5401Z" fill="#3C3C3B"/>
<path d="M64.1718 40.6148L64.0977 40.0221H64.0607C63.7829 40.3925 63.2458 40.7259 62.5235 40.7259C61.5049 40.7259 60.9863 40.0406 60.9863 39.3739C60.9863 38.2256 62.0605 37.596 64.0051 37.6145V37.5219C64.0051 37.1329 63.894 36.4292 62.8568 36.4292C62.3938 36.4292 61.8938 36.5588 61.5419 36.7811L61.3382 36.2069C61.7457 35.9477 62.3568 35.7995 62.9865 35.7995C64.5237 35.7995 64.8941 36.7811 64.8941 37.7256V39.485C64.8941 39.8924 64.9126 40.2814 64.9682 40.6148H64.1718ZM64.0422 38.2071C63.0606 38.1886 61.9308 38.3553 61.9308 39.2628C61.9308 39.8184 62.3198 40.0777 62.7828 40.0777C63.4495 40.0777 63.857 39.6887 64.0051 39.2813C64.0422 39.1887 64.0422 39.0961 64.0422 39.0035V38.2071Z" fill="#3C3C3B"/>
<path d="M67.4307 33.6882H68.3382V40.6148H67.4307V33.6882Z" fill="#3C3C3B"/>
<path d="M74.1914 40.6148V34.0401H75.1915L77.4324 37.3552C77.951 38.133 78.3584 38.8183 78.6733 39.5035L78.6918 39.485C78.6177 38.6145 78.5992 37.7997 78.5992 36.7811V34.0216H79.4511V40.5962H78.5251L76.3027 37.2626C75.8212 36.5218 75.3582 35.781 75.0063 35.0587H74.9692C75.0248 35.8921 75.0433 36.6885 75.0433 37.7626V40.5777H74.1914V40.6148Z" fill="#3C3C3B"/>
<path d="M82.5443 38.4109C82.5628 39.5776 83.3407 40.0406 84.2667 40.0406C84.9149 40.0406 85.3224 39.9295 85.6557 39.7999L85.8224 40.411C85.5076 40.5407 84.9519 40.7073 84.1555 40.7073C82.6184 40.7073 81.6924 39.7443 81.6924 38.3183C81.6924 36.8922 82.5813 35.7625 84.0444 35.7625C85.6742 35.7625 86.1187 37.1144 86.1187 37.9849C86.1187 38.1701 86.1002 38.2997 86.0817 38.3923H82.5443V38.4109ZM85.2112 37.7997C85.2112 37.2626 84.9705 36.4107 83.9519 36.4107C83.0258 36.4107 82.6184 37.2071 82.5443 37.7997H85.2112Z" fill="#3C3C3B"/>
<path d="M89.3592 34.5401V35.8921H90.6742V36.5403H89.3592V39.0775C89.3592 39.6702 89.5444 40.0036 90.0445 40.0036C90.2852 40.0036 90.4519 39.985 90.5815 39.948L90.6186 40.5962C90.4334 40.6703 90.1556 40.7073 89.8037 40.7073C89.3777 40.7073 89.0259 40.5777 88.8221 40.337C88.5629 40.0777 88.4703 39.6517 88.4703 39.0961V36.5218H87.6924V35.8736H88.4703V34.7624L89.3592 34.5401Z" fill="#3C3C3B"/>
<path d="M93.0997 35.8921L93.7664 38.2812C93.9146 38.8183 94.0443 39.2998 94.1369 39.7813H94.1554C94.2665 39.2998 94.4332 38.7998 94.5999 38.2812L95.4148 35.8736H96.1926L96.9705 38.2256C97.1557 38.7812 97.3038 39.2813 97.4149 39.7628H97.4335C97.5261 39.2813 97.6557 38.7812 97.8224 38.2256L98.5447 35.855H99.4336L97.8039 40.5777H96.9705L96.2111 38.3183C96.0259 37.7812 95.8963 37.3181 95.7666 36.7625H95.7481C95.6185 37.3366 95.4703 37.8182 95.2851 38.3183L94.4702 40.5592H93.6368L92.1182 35.8365H93.0997V35.8921Z" fill="#3C3C3B"/>
<path d="M105.972 38.2071C105.972 39.948 104.676 40.7259 103.472 40.7259C102.102 40.7259 101.064 39.7999 101.064 38.2997C101.064 36.7255 102.176 35.7995 103.565 35.7995C104.991 35.7995 105.972 36.781 105.972 38.2071ZM101.99 38.2627C101.99 39.2998 102.62 40.0777 103.509 40.0777C104.38 40.0777 105.046 39.2998 105.046 38.2442C105.046 37.4478 104.62 36.4292 103.528 36.4292C102.454 36.4292 101.99 37.3737 101.99 38.2627Z" fill="#3C3C3B"/>
<path d="M108.158 37.3737C108.158 36.8181 108.14 36.3366 108.121 35.9106H108.918L108.955 36.8366H108.992C109.232 36.2069 109.788 35.7995 110.381 35.7995C110.473 35.7995 110.547 35.7995 110.64 35.818V36.6329C110.547 36.6144 110.455 36.6144 110.325 36.6144C109.677 36.6144 109.232 37.0774 109.103 37.7071C109.084 37.8182 109.066 37.9664 109.066 38.1145V40.6333H108.158V37.3737Z" fill="#3C3C3B"/>
<path d="M113.492 38.059H113.51C113.64 37.8923 113.806 37.6885 113.955 37.5219L115.436 35.8921H116.529L114.584 37.8367L116.788 40.6148H115.677L113.955 38.3553L113.492 38.8368V40.6148H112.584V33.6882H113.492V38.059Z" fill="#3C3C3B"/>
<path d="M121.64 39.5776C122.048 39.8184 122.64 40.0036 123.251 40.0036C124.177 40.0036 124.715 39.5591 124.715 38.8924C124.715 38.2812 124.326 37.9293 123.4 37.596C122.251 37.207 121.548 36.6514 121.548 35.7254C121.548 34.7068 122.455 33.9475 123.807 33.9475C124.511 33.9475 125.048 34.0957 125.344 34.2623L125.085 34.9661C124.863 34.8364 124.4 34.6512 123.77 34.6512C122.807 34.6512 122.455 35.1883 122.455 35.6328C122.455 36.244 122.881 36.5403 123.844 36.8922C125.029 37.3367 125.622 37.8738 125.622 38.8368C125.622 39.8369 124.826 40.7259 123.177 40.7259C122.492 40.7259 121.77 40.5407 121.381 40.2999L121.64 39.5776Z" fill="#3C3C3B"/>
<path d="M132.437 38.2071C132.437 39.948 131.141 40.7259 129.937 40.7259C128.566 40.7259 127.529 39.7999 127.529 38.2997C127.529 36.7255 128.641 35.7995 130.03 35.7995C131.456 35.7995 132.437 36.781 132.437 38.2071ZM128.455 38.2627C128.455 39.2998 129.085 40.0777 129.974 40.0777C130.844 40.0777 131.511 39.2998 131.511 38.2442C131.511 37.4478 131.085 36.4292 129.992 36.4292C128.918 36.4292 128.455 37.3737 128.455 38.2627Z" fill="#3C3C3B"/>
<path d="M134.623 33.6882H135.531V40.6148H134.623V33.6882Z" fill="#3C3C3B"/>
<path d="M142.308 39.3183C142.308 39.8184 142.326 40.2444 142.345 40.6148H141.53L141.474 39.8369H141.456C141.215 40.2258 140.696 40.7073 139.789 40.7073C139.011 40.7073 138.066 40.2999 138.066 38.6331V35.8736H138.974V38.4849C138.974 39.3739 139.27 40.0036 140.104 40.0036C140.715 40.0036 141.141 39.5961 141.307 39.2257C141.363 39.0961 141.382 38.948 141.382 38.7813V35.8921H142.289V39.3183H142.308Z" fill="#3C3C3B"/>
<path d="M145.956 34.5401V35.8921H147.271V36.5403H145.956V39.0776C145.956 39.6702 146.141 40.0036 146.641 40.0036C146.882 40.0036 147.049 39.985 147.178 39.948L147.215 40.5962C147.03 40.6703 146.752 40.7073 146.4 40.7073C145.974 40.7073 145.641 40.5777 145.419 40.337C145.16 40.0777 145.067 39.6517 145.067 39.0961V36.5218H144.289V35.8736H145.067V34.7624L145.956 34.5401Z" fill="#3C3C3B"/>
<path d="M150.347 34.5587C150.347 34.855 150.124 35.0957 149.772 35.0957C149.439 35.0957 149.217 34.855 149.217 34.5587C149.217 34.2623 149.458 34.0216 149.791 34.0216C150.124 34.0401 150.347 34.2623 150.347 34.5587ZM149.328 40.6148V35.8921H150.235V40.6148H149.328Z" fill="#3C3C3B"/>
<path d="M157.347 38.2071C157.347 39.948 156.051 40.7259 154.847 40.7259C153.477 40.7259 152.439 39.7999 152.439 38.2997C152.439 36.7255 153.551 35.7995 154.94 35.7995C156.366 35.7995 157.347 36.781 157.347 38.2071ZM153.365 38.2627C153.365 39.2998 153.995 40.0777 154.884 40.0777C155.755 40.0777 156.421 39.2998 156.421 38.2442C156.421 37.4478 155.995 36.4292 154.903 36.4292C153.828 36.4292 153.365 37.3737 153.365 38.2627Z" fill="#3C3C3B"/>
<path d="M159.531 37.17C159.531 36.6699 159.513 36.281 159.494 35.8921H160.309L160.365 36.6699H160.383C160.624 36.2255 161.217 35.781 162.05 35.781C162.735 35.781 163.828 36.1699 163.828 37.7812V40.5962H162.92V37.8737C162.92 37.1144 162.624 36.4662 161.754 36.4662C161.161 36.4662 160.679 36.8737 160.531 37.3552C160.494 37.4663 160.476 37.6144 160.476 37.7441V40.5777H159.568V37.17H159.531Z" fill="#3C3C3B"/>
<path d="M90.9164 26.6691C90.9164 27.0765 90.7682 27.4284 90.4904 27.7247C90.1941 28.021 89.8422 28.1692 89.4347 28.1692H88.1198V14.9643H86.8419C86.7864 15.9273 86.6567 16.7978 86.4159 17.5756C86.1752 18.3535 85.8418 19.0017 85.4529 19.5573C85.0269 20.1129 84.5454 20.5203 83.9898 20.8167C83.4342 21.113 82.823 21.2611 82.1748 21.2611C81.4711 21.2611 80.8414 21.0945 80.2487 20.7796C79.6746 20.4648 79.1746 20.0018 78.7486 19.3906C78.3226 18.798 78.0078 18.0757 77.7856 17.2423C77.5633 16.4089 77.4521 15.4643 77.4521 14.4272C77.4521 13.39 77.5633 12.464 77.7856 11.6121C78.0078 10.7787 78.3411 10.0564 78.7486 9.46376C79.1746 8.87111 79.6746 8.40812 80.2487 8.09328C80.8228 7.77844 81.4711 7.61174 82.1748 7.61174C82.786 7.61174 83.3416 7.7414 83.8787 7.98216C84.3972 8.22292 84.8602 8.57477 85.2677 9.03777C85.6566 9.50078 85.99 10.0749 86.2493 10.7417C86.5085 11.4084 86.6938 12.1492 86.7864 12.9456H88.1383V7.13019H90.9534V26.6691H90.9164ZM80.2302 14.3901C80.2302 15.9088 80.3969 17.0941 80.7303 17.946C81.0636 18.798 81.5266 19.2239 82.1193 19.2239C82.7119 19.2239 83.1749 18.7794 83.5268 17.909C83.8787 17.0385 84.0453 15.8532 84.0453 14.3716C84.0453 12.89 83.8787 11.7232 83.5268 10.8342C83.1749 9.96378 82.7119 9.51932 82.1193 9.51932C81.5266 9.51932 81.0636 9.96378 80.7303 10.8342C80.3969 11.7232 80.2302 12.89 80.2302 14.3901ZM95.0093 26.632C95.0093 27.0579 94.8797 27.4099 94.6204 27.7062C94.3611 28.0025 94.0278 28.1506 93.6389 28.1506H92.2313V7.11171H95.0093V26.632Z" fill="#BE1622"/>
<path d="M98.3613 25.1134V23.0947H117.826V25.1134H98.3613ZM109.603 9.20451C109.603 10.2231 109.788 11.1491 110.177 12.0196C110.566 12.8715 111.066 13.6493 111.714 14.316C112.344 15.0013 113.048 15.594 113.844 16.0755C114.641 16.557 115.456 16.9274 116.27 17.1682L115.122 19.0202C114.511 18.872 113.844 18.6127 113.14 18.2609C112.418 17.909 111.733 17.483 111.085 17.0015C110.418 16.5385 109.807 16.0014 109.288 15.4273C108.751 14.8346 108.362 14.2235 108.121 13.5938C107.881 14.242 107.473 14.8531 106.955 15.4273C106.418 16.0199 105.825 16.5385 105.177 17.0015C104.51 17.483 103.806 17.909 103.102 18.2609C102.38 18.6127 101.732 18.872 101.121 19.0202L99.9726 17.1682C100.806 16.9274 101.602 16.557 102.399 16.0755C103.195 15.594 103.917 15.0013 104.547 14.316C105.177 13.6493 105.677 12.89 106.047 12.0196C106.436 11.1676 106.621 10.2231 106.621 9.20451V7.57472H109.622V9.20451H109.603Z" fill="#BE1622"/>
<path d="M119.512 14.4087C119.512 13.3715 119.641 12.4455 119.919 11.5936C120.197 10.7602 120.586 10.0379 121.104 9.44522C121.604 8.85257 122.197 8.38958 122.901 8.07474C123.605 7.7599 124.383 7.5932 125.216 7.5932C126.049 7.5932 126.827 7.7599 127.549 8.07474C128.253 8.38958 128.864 8.85257 129.364 9.44522C129.864 10.0379 130.253 10.7602 130.531 11.5936C130.809 12.427 130.957 13.3715 130.957 14.4087C130.957 15.4458 130.809 16.3718 130.531 17.2237C130.253 18.0571 129.864 18.7794 129.364 19.3721C128.864 19.9832 128.272 20.4463 127.549 20.7611C126.846 21.0759 126.068 21.2426 125.216 21.2426C124.383 21.2426 123.605 21.0759 122.901 20.7611C122.197 20.4463 121.604 19.9832 121.104 19.3721C120.586 18.7794 120.197 18.0571 119.919 17.2237C119.641 16.3718 119.512 15.4273 119.512 14.4087ZM122.512 14.3901C122.512 15.9088 122.753 17.0941 123.234 17.946C123.716 18.798 124.383 19.2239 125.216 19.2239C126.068 19.2239 126.735 18.7794 127.198 17.909C127.661 17.0385 127.901 15.8532 127.901 14.3716C127.901 12.89 127.661 11.7232 127.198 10.8342C126.735 9.94526 126.068 9.51931 125.216 9.51931C124.383 9.51931 123.716 9.96378 123.234 10.8342C122.753 11.7232 122.512 12.89 122.512 14.3901ZM136.161 26.632C136.161 27.0579 136.013 27.4099 135.735 27.7062C135.439 28.0025 135.087 28.1506 134.68 28.1506H133.161V7.11171H136.18V12.9641H139.217V14.9828H136.18V26.632H136.161Z" fill="#BE1622"/>
<path d="M140.55 14.4087C140.55 13.3715 140.679 12.4455 140.957 11.5936C141.235 10.7602 141.624 10.0379 142.143 9.44522C142.643 8.85257 143.235 8.38958 143.939 8.07474C144.643 7.7599 145.402 7.5932 146.254 7.5932C147.087 7.5932 147.865 7.7599 148.588 8.07474C149.291 8.38958 149.903 8.85257 150.403 9.44522C150.903 10.0379 151.292 10.7602 151.569 11.5936C151.847 12.427 151.995 13.3715 151.995 14.4087C151.995 15.4458 151.847 16.3718 151.569 17.2237C151.292 18.0571 150.903 18.7794 150.403 19.3721C149.903 19.9832 149.291 20.4463 148.588 20.7611C147.884 21.0759 147.106 21.2426 146.254 21.2426C145.402 21.2426 144.643 21.0759 143.939 20.7611C143.235 20.4463 142.643 19.9832 142.143 19.3721C141.624 18.7794 141.235 18.0571 140.957 17.2237C140.698 16.3718 140.55 15.4273 140.55 14.4087ZM143.55 14.3901C143.55 15.9088 143.791 17.0941 144.272 17.946C144.754 18.798 145.421 19.2239 146.254 19.2239C147.106 19.2239 147.773 18.7794 148.236 17.909C148.699 17.0385 148.939 15.8532 148.939 14.3716C148.939 12.89 148.699 11.7232 148.236 10.8342C147.773 9.96378 147.106 9.51931 146.254 9.51931C145.402 9.51931 144.754 9.96378 144.272 10.8342C143.791 11.7232 143.55 12.89 143.55 14.3901ZM157.681 26.632C157.681 27.0579 157.533 27.4099 157.255 27.7062C156.977 28.0025 156.607 28.1506 156.199 28.1506H154.681V7.11171H157.7V26.632H157.681Z" fill="#BE1622"/>
<path d="M172.183 7.81549V19.5388C172.183 19.9647 172.035 20.3166 171.739 20.6129C171.442 20.9092 171.09 21.0574 170.664 21.0574H163.386C162.978 21.0574 162.627 20.9092 162.33 20.6129C162.034 20.3166 161.886 19.9647 161.886 19.5388V7.81549H164.923V12.1492H169.127V7.81549H172.183ZM169.146 14.1308H164.942V19.0387H169.146V14.1308ZM178.721 26.632C178.721 27.0579 178.572 27.4099 178.295 27.7062C177.998 28.0025 177.646 28.1506 177.239 28.1506H175.72V7.11171H178.739V26.632H178.721Z" fill="#BE1622"/>
<path d="M182.703 7.81549H193.5V9.83419H189.648V9.92677C189.648 10.7046 189.777 11.4269 190.037 12.0937C190.296 12.7604 190.629 13.3715 191.055 13.9271C191.481 14.4827 191.963 15.0013 192.5 15.4643C193.037 15.9273 193.611 16.3533 194.204 16.7422L192.963 18.5757C192.685 18.4276 192.352 18.2239 191.944 18.0016C191.555 17.7794 191.129 17.5016 190.685 17.1867C190.24 16.8719 189.777 16.52 189.333 16.094C188.888 15.6866 188.481 15.205 188.074 14.6865C187.703 15.2236 187.296 15.7051 186.833 16.131C186.37 16.5755 185.925 16.9645 185.499 17.2978C185.055 17.6497 184.647 17.946 184.24 18.1868C183.832 18.4275 183.499 18.6313 183.203 18.798L181.962 16.9645C182.555 16.5756 183.129 16.131 183.666 15.6495C184.203 15.168 184.684 14.6309 185.11 14.0383C185.536 13.4456 185.87 12.7974 186.129 12.1121C186.388 11.4269 186.518 10.6861 186.518 9.90823V9.81565H182.666V7.81549H182.703ZM189.24 25.9097V20.5574H186.203V26.4283C186.203 26.8357 186.351 27.1876 186.648 27.484C186.944 27.7803 187.296 27.9284 187.722 27.9284H200.001V25.9097H189.24ZM193.111 13.5382H196.76V22.7613H198.278C198.704 22.7613 199.056 22.6131 199.334 22.3168C199.63 22.0205 199.76 21.6686 199.76 21.2426V7.11171H196.741V11.538H193.093V13.5382H193.111Z" fill="#BE1622"/>
<path d="M48.4494 27.4284C47.6716 26.8543 46.9308 26.1875 46.2456 25.4097C45.5603 24.6504 44.9677 23.8354 44.4491 22.9465C43.9306 22.0945 43.5231 21.187 43.2453 20.224C42.9489 19.2609 42.8193 18.2979 42.8193 17.3163C42.8193 16.2607 42.9675 15.2606 43.2823 14.316C43.5787 13.3715 44.0046 12.4641 44.5232 11.6306C45.0417 10.7972 45.6344 10.0194 46.3196 9.29708C47.0049 8.57479 47.7272 7.88955 48.468 7.27839C48.4865 7.27839 48.5421 7.3154 48.6717 7.37096C48.8014 7.42652 48.931 7.50062 49.0792 7.55618C49.2273 7.63026 49.4125 7.72287 49.6533 7.85251C49.0421 8.48219 48.468 9.16742 47.9494 9.90822C47.4123 10.649 46.9493 11.4084 46.5789 12.2048C46.1715 13.0011 45.8566 13.8345 45.6344 14.6865C45.4121 15.5384 45.2825 16.4274 45.2825 17.3348C45.2825 18.2423 45.3936 19.1313 45.6344 20.0203C45.8566 20.9093 46.1715 21.7427 46.5789 22.5576C46.9679 23.3725 47.4123 24.1318 47.9494 24.8541C48.468 25.5763 49.0421 26.2246 49.6533 26.7987L48.4494 27.4284Z" fill="#BE1823"/>
<path d="M59.8579 25.4282C59.8579 27.1135 59.3579 27.9654 58.3763 27.9654H57.9503C57.4873 27.9654 57.2651 27.7432 57.2651 27.3173V21.0759H49.1162V18.9646H67.5438C67.8772 18.9646 68.0253 19.2054 68.0253 19.6684C68.0253 20.5944 67.729 21.0759 67.1179 21.0759H59.8765V25.4282H59.8579ZM51.8572 8.53775H64.8954C65.2288 8.53775 65.377 8.76002 65.377 9.2045C65.377 10.1305 65.0807 10.575 64.4695 10.575H59.8394C59.9135 11.0009 60.0987 11.4269 60.3765 11.8529C60.6728 12.2788 61.0433 12.6678 61.5248 13.0197C61.9878 13.3901 62.5434 13.7234 63.1916 14.0383C63.8398 14.3346 64.5621 14.5938 65.377 14.779C65.7103 14.8717 65.8585 15.0754 65.8585 15.4273C65.8585 15.8532 65.7474 16.1866 65.5436 16.4274C65.3214 16.6681 65.1177 16.7793 64.9325 16.7793C64.8399 16.7793 64.7843 16.7792 64.7473 16.7607C63.3027 16.3718 62.0248 15.9088 60.9506 15.3532C59.8764 14.7976 59.0801 14.1679 58.543 13.4456C57.3207 14.8902 55.2649 16.0014 52.3387 16.7422C52.3017 16.7607 52.2276 16.7607 52.135 16.7607C51.9313 16.7607 51.709 16.6496 51.4868 16.4088C51.2646 16.1681 51.1534 15.8532 51.1534 15.4273C51.1534 15.2606 51.1904 15.1309 51.283 15.0013C51.3756 14.8902 51.5053 14.7976 51.6535 14.7606C52.4684 14.5754 53.2092 14.3161 53.8574 14.0012C54.5056 13.6864 55.0797 13.353 55.5427 12.9826C56.0243 12.6122 56.3946 12.2233 56.6724 11.7973C56.9502 11.3714 57.1355 10.9824 57.2095 10.575H51.8017V8.53775H51.8572Z" fill="#BE1823"/>
<path d="M67.1552 26.8357C67.7478 26.2616 68.322 25.6134 68.8405 24.8911C69.3776 24.1688 69.8407 23.4095 70.2481 22.5946C70.6555 21.7797 70.9704 20.9278 71.1926 20.0573C71.4334 19.1683 71.5445 18.2794 71.5445 17.3719C71.5445 16.4644 71.4334 15.5939 71.1926 14.7235C70.9704 13.8716 70.6555 13.0382 70.2481 12.2418C69.8592 11.4454 69.3776 10.6676 68.8405 9.9453C68.3035 9.20449 67.7294 8.51921 67.1367 7.88952C67.396 7.7784 67.5812 7.66728 67.7293 7.59319C67.859 7.53763 68.0627 7.44508 68.3034 7.29692C69.0628 7.92661 69.7665 8.59333 70.4518 9.31562C71.137 10.0379 71.7297 10.8157 72.2483 11.6491C72.7668 12.5011 73.1743 13.39 73.4891 14.3346C73.804 15.2791 73.9521 16.2792 73.9521 17.3348C73.9521 18.3164 73.804 19.2795 73.5262 20.2425C73.2298 21.2056 72.8409 22.1131 72.3409 22.965C71.8223 23.8355 71.2111 24.6503 70.5259 25.4282C69.8406 26.1875 69.0998 26.8542 68.322 27.4469L67.1552 26.8357Z" fill="#BE1823"/>
</svg>
