<svg width="80" height="80" viewBox="0 0 80 80" fill="none" xmlns="http://www.w3.org/2000/svg">
<path d="M34.4993 54.3588L51.025 37.8332L48.6275 35.4358L34.4801 49.5832L27.3519 42.4549L24.9737 44.8332L34.4993 54.3588ZM21.666 63.3332C17.5079 63.3332 13.9684 61.8823 11.0474 58.9806C8.12649 56.0789 6.66602 52.549 6.66602 48.3908C6.66602 44.5703 7.97157 41.1793 10.5827 38.2178C13.1938 35.2563 16.4395 33.6665 20.3198 33.4485C21.0677 28.5938 23.3007 24.5832 27.0186 21.4165C30.7365 18.2498 35.0635 16.6665 39.9993 16.6665C45.5592 16.6665 50.2825 18.6099 54.1693 22.4966C58.056 26.3834 59.9993 31.1067 59.9993 36.6665V39.9998H62.0506C65.2429 40.1024 67.9214 41.2744 70.0859 43.5158C72.2504 45.7573 73.3327 48.4742 73.3327 51.6665C73.3327 54.9357 72.2055 57.6975 69.9513 59.9518C67.697 62.206 64.9352 63.3332 61.666 63.3332H21.666ZM21.666 59.9998H61.666C63.9993 59.9998 65.9716 59.1943 67.5827 57.5832C69.1938 55.9721 69.9993 53.9998 69.9993 51.6665C69.9993 49.3332 69.1938 47.3609 67.5827 45.7498C65.9716 44.1387 63.9993 43.3332 61.666 43.3332H56.666V36.6665C56.666 32.0554 55.041 28.1248 51.791 24.8748C48.541 21.6248 44.6105 19.9998 39.9993 19.9998C35.3882 19.9998 31.4577 21.6248 28.2077 24.8748C24.9577 28.1248 23.3327 32.0554 23.3327 36.6665H21.666C18.4438 36.6665 15.6938 37.8054 13.416 40.0832C11.1382 42.3609 9.99935 45.1109 9.99935 48.3332C9.99935 51.5554 11.1382 54.3054 13.416 56.5832C15.6938 58.861 18.4438 59.9998 21.666 59.9998Z" fill="white"/>
</svg>
