<svg width="80" height="80" viewBox="0 0 80 80" fill="none" xmlns="http://www.w3.org/2000/svg">
<path d="M23.9103 51.0255H45.9616V50.4742C45.9616 48.7135 44.921 47.2541 42.8398 46.096C40.7586 44.9379 38.124 44.3588 34.936 44.3588C31.7479 44.3588 29.1133 44.9379 27.032 46.096C24.9509 47.2541 23.9103 48.7135 23.9103 50.4742V51.0255ZM34.936 38.9742C36.3419 38.9742 37.5267 38.4923 38.4905 37.5287C39.4541 36.565 39.936 35.3802 39.936 33.9742C39.936 32.5682 39.4541 31.3834 38.4905 30.4197C37.5267 29.456 36.3419 28.9742 34.936 28.9742C33.53 28.9742 32.3451 29.456 31.3815 30.4197C30.4178 31.3834 29.936 32.5682 29.936 33.9742C29.936 35.3802 30.4178 36.565 31.3815 37.5287C32.3451 38.4923 33.53 38.9742 34.936 38.9742ZM16.9872 63.3332C15.453 63.3332 14.172 62.8193 13.1442 61.7915C12.1164 60.7637 11.6025 59.4828 11.6025 57.9486V22.0511C11.6025 20.5169 12.1164 19.2359 13.1442 18.2082C14.172 17.1804 15.453 16.6665 16.9872 16.6665H52.8846C54.4188 16.6665 55.6998 17.1804 56.7276 18.2082C57.7554 19.2359 58.2693 20.5169 58.2693 22.0511V37.5639L68.3975 27.4357V52.564L58.2693 42.4358V57.9486C58.2693 59.4828 57.7554 60.7637 56.7276 61.7915C55.6998 62.8193 54.4188 63.3332 52.8846 63.3332H16.9872ZM16.9872 59.9998H52.8846C53.483 59.9998 53.9744 59.8075 54.359 59.4229C54.7437 59.0383 54.936 58.5469 54.936 57.9486V22.0511C54.936 21.4528 54.7437 20.9614 54.359 20.5768C53.9744 20.1921 53.483 19.9998 52.8846 19.9998H16.9872C16.3889 19.9998 15.8975 20.1921 15.5129 20.5768C15.1283 20.9614 14.936 21.4528 14.936 22.0511V57.9486C14.936 58.5469 15.1283 59.0383 15.5129 59.4229C15.8975 59.8075 16.3889 59.9998 16.9872 59.9998Z" fill="#222222"/>
</svg>
