<svg width="80" height="80" viewBox="0 0 80 80" fill="none" xmlns="http://www.w3.org/2000/svg">
<path d="M20.0078 74.9998C17.6951 74.9998 15.7268 74.1904 14.1029 72.5715C12.479 70.9526 11.667 68.9868 11.667 66.674C11.667 64.3613 12.4774 62.393 14.0981 60.7691C15.7189 59.1451 17.6869 58.3332 20.0022 58.3332C20.6505 58.3332 21.3294 58.4272 22.0388 58.6152C22.7482 58.8032 23.4085 59.0575 24.0196 59.378L32.4875 48.846C31.2738 47.5511 30.4469 46.1195 30.0067 44.5511C29.5666 42.9828 29.4918 41.393 29.7823 39.7819L17.3272 35.6729C16.5965 36.9764 15.5882 38.0234 14.3025 38.8139C13.0168 39.6045 11.5828 39.9998 10.0003 39.9998C7.68549 39.9998 5.71791 39.1904 4.09758 37.5715C2.47719 35.9526 1.66699 33.9868 1.66699 31.6741C1.66699 29.3613 2.47644 27.393 4.09533 25.7691C5.71421 24.1451 7.68005 23.3332 9.99283 23.3332C12.3055 23.3332 14.2739 24.1434 15.8977 25.7638C17.5217 27.3841 18.3337 29.3517 18.3337 31.6665C18.3337 31.9486 18.323 32.1665 18.3017 32.3203C18.2803 32.4742 18.2696 32.628 18.2696 32.7819L30.6606 37.1024C31.3871 35.7007 32.4245 34.4763 33.7727 33.4293C35.121 32.3823 36.7054 31.7071 38.526 31.4037V18.1922C36.402 17.7947 34.7279 16.8065 33.5035 15.2274C32.2792 13.6484 31.667 11.897 31.667 9.97334C31.667 7.68328 32.4764 5.72631 34.0953 4.10242C35.7142 2.47848 37.68 1.6665 39.9928 1.6665C42.3055 1.6665 44.2738 2.4767 45.8977 4.09709C47.5217 5.71742 48.3337 7.685 48.3337 9.99984C48.3337 11.9058 47.7183 13.6484 46.4875 15.2274C45.2567 16.8065 43.5858 17.7947 41.4747 18.1922V31.4037C43.2952 31.7071 44.8689 32.3823 46.1958 33.4293C47.5228 34.4763 48.5709 35.7007 49.3401 37.1024L61.7311 32.7819C61.6883 32.5853 61.667 32.4208 61.667 32.2883V31.6665C61.667 29.3517 62.4764 27.3841 64.0953 25.7638C65.7143 24.1434 67.6801 23.3332 69.9927 23.3332C72.3055 23.3332 74.2738 24.1426 75.8977 25.7615C77.5217 27.3805 78.3337 29.3463 78.3337 31.6589C78.3337 33.9717 77.5235 35.94 75.9031 37.5639C74.2827 39.1879 72.3152 39.9998 70.0003 39.9998C68.4317 39.9998 66.9979 39.6045 65.6988 38.8139C64.3998 38.0234 63.3914 36.9764 62.6734 35.6729L50.2183 39.7819C50.5089 41.393 50.4341 42.9796 49.9939 44.5415C49.5537 46.1035 48.7268 47.517 47.5132 48.7819L55.9811 59.2947C56.5922 59.0169 57.2524 58.7872 57.9618 58.6056C58.6713 58.424 59.3501 58.3332 59.9984 58.3332C62.3137 58.3332 64.2818 59.1426 65.9026 60.7615C67.5233 62.3804 68.3337 64.3462 68.3337 66.659C68.3337 68.9717 67.5242 70.9401 65.9053 72.564C64.2864 74.1879 62.3206 74.9998 60.0079 74.9998C57.6951 74.9998 55.7268 74.1896 54.1029 72.5693C52.479 70.9489 51.667 68.9813 51.667 66.6665C51.667 65.6753 51.8262 64.7214 52.1446 63.8046C52.4629 62.8878 52.9917 62.034 53.7311 61.2434L45.2632 50.5832C43.7546 51.5618 42.0078 52.0512 40.0227 52.0512C38.0377 52.0512 36.2695 51.5618 34.7182 50.5832L26.2696 61.2434C26.9661 62.034 27.4843 62.8878 27.8241 63.8046C28.1638 64.7214 28.3337 65.6753 28.3337 66.6665C28.3337 68.9813 27.5242 70.9489 25.9053 72.5693C24.2864 74.1896 22.3206 74.9998 20.0078 74.9998ZM10.0003 36.6665C11.3721 36.6665 12.5484 36.1761 13.5292 35.1953C14.5099 34.2146 15.0003 33.0383 15.0003 31.6665C15.0003 30.2947 14.5099 29.1184 13.5292 28.1377C12.5484 27.1569 11.3721 26.6665 10.0003 26.6665C8.62855 26.6665 7.45227 27.1569 6.47149 28.1377C5.49071 29.1184 5.00033 30.2947 5.00033 31.6665C5.00033 33.0383 5.49071 34.2146 6.47149 35.1953C7.45227 36.1761 8.62855 36.6665 10.0003 36.6665ZM20.0003 71.6665C21.3721 71.6665 22.5484 71.1761 23.5292 70.1953C24.5099 69.2146 25.0003 68.0383 25.0003 66.6665C25.0003 65.2947 24.5099 64.1185 23.5292 63.1377C22.5484 62.1569 21.3721 61.6665 20.0003 61.6665C18.6285 61.6665 17.4523 62.1569 16.4715 63.1377C15.4907 64.1185 15.0003 65.2947 15.0003 66.6665C15.0003 68.0383 15.4907 69.2146 16.4715 70.1953C17.4523 71.1761 18.6285 71.6665 20.0003 71.6665ZM40.0003 14.9998C41.3721 14.9998 42.5484 14.5094 43.5292 13.5287C44.5099 12.5479 45.0003 11.3716 45.0003 9.99984C45.0003 8.62806 44.5099 7.45178 43.5292 6.471C42.5484 5.49023 41.3721 4.99984 40.0003 4.99984C38.6285 4.99984 37.4523 5.49023 36.4715 6.471C35.4907 7.45178 35.0003 8.62806 35.0003 9.99984C35.0003 11.3716 35.4907 12.5479 36.4715 13.5287C37.4523 14.5094 38.6285 14.9998 40.0003 14.9998ZM40.0003 48.7178C41.949 48.7178 43.6114 48.0297 44.9875 46.6537C46.3635 45.2776 47.0516 43.6152 47.0516 41.6665C47.0516 39.7178 46.3635 38.0554 44.9875 36.6793C43.6114 35.3033 41.949 34.6153 40.0003 34.6153C38.0516 34.6153 36.3892 35.3033 35.0132 36.6793C33.6371 38.0554 32.9491 39.7178 32.9491 41.6665C32.9491 43.6152 33.6371 45.2776 35.0132 46.6537C36.3892 48.0297 38.0516 48.7178 40.0003 48.7178ZM60.0003 71.6665C61.3721 71.6665 62.5484 71.1761 63.5292 70.1953C64.5099 69.2146 65.0003 68.0383 65.0003 66.6665C65.0003 65.2947 64.5099 64.1185 63.5292 63.1377C62.5484 62.1569 61.3721 61.6665 60.0003 61.6665C58.6285 61.6665 57.4523 62.1569 56.4715 63.1377C55.4907 64.1185 55.0003 65.2947 55.0003 66.6665C55.0003 68.0383 55.4907 69.2146 56.4715 70.1953C57.4523 71.1761 58.6285 71.6665 60.0003 71.6665ZM70.0003 36.6665C71.3721 36.6665 72.5484 36.1761 73.5292 35.1953C74.5099 34.2146 75.0003 33.0383 75.0003 31.6665C75.0003 30.2947 74.5099 29.1184 73.5292 28.1377C72.5484 27.1569 71.3721 26.6665 70.0003 26.6665C68.6285 26.6665 67.4523 27.1569 66.4715 28.1377C65.4907 29.1184 65.0003 30.2947 65.0003 31.6665C65.0003 33.0383 65.4907 34.2146 66.4715 35.1953C67.4523 36.1761 68.6285 36.6665 70.0003 36.6665Z" fill="#222222"/>
</svg>
