<svg width="80" height="80" viewBox="0 0 80 80" fill="none" xmlns="http://www.w3.org/2000/svg">
<path d="M45.6994 63.269C45.1737 63.9058 44.5273 64.2552 43.7602 64.3171C42.9932 64.379 42.2913 64.1472 41.6545 63.6216L30.8276 54.5575C28.4771 52.6088 26.7976 50.2135 25.7891 47.3716C24.7805 44.5297 24.5177 41.6152 25.0006 38.6279L21.0391 35.2882C20.4152 34.8053 20.0722 34.1974 20.0102 33.4645C19.9483 32.7316 20.1523 32.0468 20.6224 31.41L21.584 30.2562H14.8724V39.4228C14.8724 40.316 14.5401 41.0948 13.8756 41.7593C13.2111 42.4239 12.4322 42.7562 11.5391 42.7562V14.4229C12.4322 14.4229 13.2111 14.7551 13.8756 15.4196C14.5401 16.0842 14.8724 16.863 14.8724 17.7562V26.9229H24.3276L29.6866 20.4164C30.2549 19.8224 30.9226 19.4944 31.6897 19.4324C32.4568 19.3705 33.1374 19.581 33.7314 20.0638L37.6096 23.3203C40.4857 22.2562 43.4173 21.9869 46.4045 22.5126C49.3917 23.0382 52.0605 24.2754 54.4109 26.2241L65.2378 35.2882C65.8319 35.8139 66.1599 36.4602 66.2218 37.2274C66.2838 37.9944 66.0733 38.6685 65.5904 39.2498L45.6994 63.269ZM43.4686 60.6472L62.7827 37.4357L52.193 28.7433C50.0733 27.0254 47.6556 26.0874 44.9397 25.9293C42.224 25.7712 39.5776 26.19 37.0006 27.1857L31.9173 22.9549L23.5776 33.0574L28.5135 37.16C28.0178 39.9036 28.0947 42.612 28.7442 45.285C29.3938 47.9581 30.7998 50.1814 32.9622 51.9549L43.4686 60.6472Z" fill="white"/>
</svg>
