<svg width="32" height="32" viewBox="0 0 32 32" fill="none" xmlns="http://www.w3.org/2000/svg">
<path d="M16.0042 15.641C16.5977 15.641 17.1043 15.4297 17.524 15.007C17.9436 14.5843 18.1535 14.0762 18.1535 13.4826C18.1535 12.8891 17.9421 12.3825 17.5195 11.9628C17.0968 11.5432 16.5886 11.3333 15.9951 11.3333C15.4015 11.3333 14.8949 11.5447 14.4753 11.9674C14.0556 12.39 13.8458 12.8982 13.8458 13.4917C13.8458 14.0853 14.0571 14.5919 14.4798 15.0115C14.9025 15.4312 15.4106 15.641 16.0042 15.641ZM15.9996 26.2359C18.5056 24.0547 20.4868 21.8363 21.9432 19.5808C23.3996 17.3252 24.1278 15.3744 24.1278 13.7282C24.1278 11.2889 23.3556 9.27564 21.8112 7.68847C20.2667 6.10129 18.3295 5.3077 15.9996 5.3077C13.6697 5.3077 11.7325 6.10129 10.1881 7.68847C8.64364 9.27564 7.87142 11.2889 7.87142 13.7282C7.87142 15.3744 8.59962 17.3252 10.056 19.5808C11.5124 21.8363 13.4936 24.0547 15.9996 26.2359ZM15.9996 28.0256C12.8663 25.2547 10.506 22.6705 8.91885 20.2731C7.33167 17.8756 6.53809 15.694 6.53809 13.7282C6.53809 10.9077 7.45646 8.58119 9.29322 6.7487C11.13 4.91623 13.3654 4 15.9996 4C18.6338 4 20.8693 4.91623 22.706 6.7487C24.5428 8.58119 25.4612 10.9077 25.4612 13.7282C25.4612 15.694 24.6676 17.8756 23.0804 20.2731C21.4932 22.6705 19.133 25.2547 15.9996 28.0256Z" fill="white"/>
</svg>
