<svg width="32" height="32" viewBox="0 0 32 32" fill="none" xmlns="http://www.w3.org/2000/svg">
<path d="M25.4356 15.2821C25.2817 12.7676 24.3249 10.6304 22.5651 8.87058C20.8052 7.11076 18.668 6.15393 16.1535 6.00008V4.66675C17.598 4.73513 18.9497 5.05607 20.2086 5.62958C21.4676 6.20307 22.5719 6.9646 23.5215 7.91418C24.4711 8.86376 25.2326 9.96804 25.8061 11.227C26.3796 12.486 26.7005 13.8377 26.7689 15.2821H25.4356ZM20.1022 15.2821C19.9484 14.2565 19.5082 13.3762 18.7817 12.6411C18.0552 11.9061 17.1792 11.4702 16.1535 11.3334V10.0001C17.5535 10.1368 18.7454 10.7014 19.7292 11.6937C20.7129 12.686 21.2817 13.8821 21.4356 15.2821H20.1022ZM25.2407 26.6667C22.9928 26.6667 20.6886 26.1039 18.3279 24.9783C15.9672 23.8527 13.7698 22.2727 11.7356 20.2385C9.71846 18.2043 8.1471 16.0112 7.02147 13.659C5.89583 11.3069 5.33301 9.00691 5.33301 6.75905C5.33301 6.35905 5.46634 6.02144 5.73301 5.74621C5.99967 5.47101 6.33301 5.33341 6.73301 5.33341H10.0304C10.3928 5.33341 10.7091 5.44751 10.9792 5.67571C11.2493 5.90391 11.4322 6.19665 11.5279 6.55391L12.1894 9.73342C12.251 10.1061 12.2399 10.4317 12.1561 10.7103C12.0723 10.989 11.9245 11.2172 11.7125 11.3949L8.78684 14.1231C9.33386 15.1163 9.93857 16.039 10.601 16.8911C11.2634 17.7432 11.9698 18.5505 12.7202 19.3129C13.4946 20.0873 14.3279 20.8073 15.2202 21.4731C16.1125 22.139 17.092 22.7676 18.1586 23.3591L21.0099 20.4565C21.227 20.2223 21.471 20.068 21.742 19.9937C22.0129 19.9193 22.3125 19.9043 22.6407 19.9488L25.4458 20.5231C25.8082 20.612 26.1023 20.7945 26.3279 21.0706C26.5535 21.3466 26.6663 21.6633 26.6663 22.0206V25.2667C26.6663 25.6667 26.5287 26.0001 26.2535 26.2667C25.9783 26.5334 25.6407 26.6667 25.2407 26.6667ZM8.16121 12.8719L10.7202 10.518C10.8056 10.4496 10.8612 10.3556 10.8868 10.236C10.9125 10.1163 10.9082 10.0052 10.874 9.90265L10.2817 7.07701C10.2475 6.94026 10.1877 6.83769 10.1022 6.76932C10.0168 6.70094 9.90566 6.66675 9.76891 6.66675H7.03301C6.93045 6.66675 6.84499 6.70094 6.77661 6.76932C6.70823 6.83769 6.67404 6.92316 6.67404 7.02571C6.69969 7.93683 6.84242 8.88812 7.10224 9.87958C7.36206 10.871 7.71505 11.8685 8.16121 12.8719ZM19.4279 23.9847C20.3287 24.4308 21.289 24.7608 22.3086 24.9744C23.3283 25.1881 24.2168 25.3026 24.974 25.318C25.0766 25.318 25.1621 25.2838 25.2304 25.2155C25.2988 25.1471 25.333 25.0616 25.333 24.959V22.2822C25.333 22.1454 25.2988 22.0343 25.2304 21.9488C25.1621 21.8633 25.0595 21.8035 24.9227 21.7693L22.4561 21.2642C22.3535 21.23 22.2638 21.2257 22.1868 21.2514C22.1099 21.277 22.0287 21.3326 21.9433 21.418L19.4279 23.9847Z" fill="white"/>
</svg>
