<svg width="80" height="80" viewBox="0 0 80 80" fill="none" xmlns="http://www.w3.org/2000/svg">
<path d="M28.9295 63.3335H51.1346L48.6346 53.3335H31.4295L28.9295 63.3335ZM30 50.0002H50C54.6111 50.0002 58.5417 48.3752 61.7917 45.1252C65.0417 41.8752 66.6667 37.9446 66.6667 33.3335C66.6667 28.7224 65.0417 24.7918 61.7917 21.5418C58.5417 18.2918 54.6111 16.6668 50 16.6668H30C25.3889 16.6668 21.4583 18.2918 18.2083 21.5418C14.9583 24.7918 13.3333 28.7224 13.3333 33.3335C13.3333 37.9446 14.9583 41.8752 18.2083 45.1252C21.4583 48.3752 25.3889 50.0002 30 50.0002ZM39.9875 41.6668C37.6924 41.6668 35.7319 40.8496 34.1058 39.2152C32.4797 37.5809 31.6667 35.6161 31.6667 33.321C31.6667 31.0259 32.4839 29.0654 34.1183 27.4392C35.7526 25.8132 37.7174 25.0002 40.0125 25.0002C42.3076 25.0002 44.2681 25.8174 45.8943 27.4517C47.5203 29.0861 48.3333 31.0509 48.3333 33.346C48.3333 35.6411 47.5161 37.6016 45.8818 39.2277C44.2474 40.8538 42.2826 41.6668 39.9875 41.6668ZM21.6644 29.1027C22.354 29.1027 22.9327 28.8695 23.4007 28.4031C23.8686 27.9366 24.1026 27.3586 24.1026 26.6691C24.1026 25.9795 23.8694 25.4008 23.4029 24.9328C22.9365 24.4649 22.3585 24.2309 21.6689 24.2309C20.9794 24.2309 20.4006 24.4641 19.9327 24.9306C19.4647 25.397 19.2308 25.975 19.2308 26.6646C19.2308 27.3541 19.464 27.9329 19.9304 28.4008C20.3969 28.8688 20.9749 29.1027 21.6644 29.1027ZM15 66.6668V63.3335H25.4936L28.0128 53.1925C22.9402 52.7181 18.6699 50.5952 15.2019 46.8239C11.734 43.0525 10 38.5557 10 33.3335C10 27.7621 11.9405 23.0359 15.8214 19.1549C19.7024 15.274 24.4286 13.3335 30 13.3335H50C55.5714 13.3335 60.2976 15.274 64.1786 19.1549C68.0595 23.0359 70 27.7621 70 33.3335C70 38.5557 68.266 43.0525 64.7981 46.8239C61.3301 50.5952 57.0598 52.7181 51.9872 53.1925L54.5064 63.3335H65V66.6668H15ZM40 45.0002C43.2393 45.0002 45.9936 43.8655 48.2628 41.5963C50.5321 39.3271 51.6667 36.5728 51.6667 33.3335C51.6667 30.0942 50.5321 27.3399 48.2628 25.0707C45.9936 22.8014 43.2393 21.6668 40 21.6668C36.7607 21.6668 34.0064 22.8014 31.7372 25.0707C29.4679 27.3399 28.3333 30.0942 28.3333 33.3335C28.3333 36.5728 29.4679 39.3271 31.7372 41.5963C34.0064 43.8655 36.7607 45.0002 40 45.0002Z" fill="#222222"/>
</svg>
