<svg width="80" height="80" viewBox="0 0 80 80" fill="none" xmlns="http://www.w3.org/2000/svg">
<path d="M40.0112 70C35.8627 70 31.9624 69.2128 28.3103 67.6384C24.6583 66.064 21.4815 63.9273 18.7799 61.2283C16.0784 58.5293 13.9397 55.3554 12.3638 51.7068C10.7879 48.0582 10 44.1596 10 40.0112C10 35.8627 10.7872 31.9624 12.3616 28.3103C13.936 24.6583 16.0728 21.4815 18.7718 18.7799C21.4708 16.0784 24.6446 13.9397 28.2932 12.3638C31.9418 10.7879 35.8404 10 39.9888 10C44.1373 10 48.0376 10.7872 51.6897 12.3616C55.3417 13.936 58.5185 16.0727 61.2201 18.7717C63.9216 21.4707 66.0603 24.6446 67.6362 28.2932C69.2121 31.9418 70 35.8404 70 39.9888C70 44.1373 69.2128 48.0376 67.6384 51.6897C66.064 55.3417 63.9273 58.5185 61.2283 61.2201C58.5293 63.9216 55.3554 66.0603 51.7068 67.6362C48.0582 69.2121 44.1596 70 40.0112 70ZM40 66.6667C43.2547 66.6667 46.3889 66.0951 49.4026 64.9519C52.4163 63.8088 55.1539 62.1496 57.6154 59.9743L20.0257 22.3846C17.8932 24.8461 16.2447 27.5838 15.0802 30.5974C13.9156 33.6111 13.3333 36.7453 13.3333 40C13.3333 47.4444 15.9167 53.75 21.0833 58.9167C26.25 64.0833 32.5556 66.6667 40 66.6667ZM59.9743 57.6154C62.1496 55.1539 63.8088 52.4163 64.9519 49.4026C66.0951 46.3889 66.6667 43.2547 66.6667 40C66.6667 32.5556 64.0833 26.25 58.9167 21.0833C53.75 15.9167 47.4444 13.3333 40 13.3333C36.7303 13.3333 33.5816 13.8942 30.5541 15.016C27.5266 16.1378 24.8034 17.8077 22.3846 20.0257L59.9743 57.6154Z" fill="#222222"/>
</svg>
