<svg width="583" height="397" viewBox="0 0 583 397" fill="none" xmlns="http://www.w3.org/2000/svg">
<path d="M456.231 143.318C440.068 144.064 426.143 131.383 425.398 115.22C424.652 99.0572 437.333 85.1327 453.744 84.3868C470.155 83.6408 483.832 96.3224 484.578 112.485C485.075 128.896 472.393 142.572 456.231 143.318Z" stroke="white" stroke-width="5" stroke-miterlimit="10"/>
<path d="M476.133 136.854L580.818 244.77" stroke="white" stroke-width="5" stroke-miterlimit="10"/>
<path d="M33.8644 130.059C17.4531 130.805 3.77726 118.124 3.03129 101.961C2.28533 85.7982 14.9664 71.873 31.3777 71.127C47.789 70.381 61.4656 83.0626 62.2116 99.2253C62.9576 115.637 50.2757 129.313 33.8644 130.059Z" stroke="white" stroke-width="5" stroke-miterlimit="10"/>
<path d="M53.2588 78.8347L127.856 2" stroke="white" stroke-width="5" stroke-miterlimit="10"/>
<path d="M92.1017 393.969C75.6904 394.715 62.0146 382.033 61.2686 365.871C60.5226 349.708 73.2037 335.783 89.615 335.037C106.026 334.291 119.702 346.973 120.448 363.136C120.945 379.547 108.264 393.223 92.1017 393.969Z" stroke="white" stroke-width="5" stroke-miterlimit="10"/>
<path d="M254.441 223.908C238.029 224.654 224.353 211.973 223.607 195.81C222.861 179.648 235.543 165.723 251.954 164.977C268.365 164.231 282.042 176.913 282.788 193.075C283.534 209.238 270.852 223.163 254.441 223.908Z" stroke="white" stroke-width="5" stroke-miterlimit="10"/>
<path d="M110.199 343.56L233.284 216.746" stroke="white" stroke-width="5" stroke-miterlimit="10"/>
</svg>
